<mxfile host="drawio-plugin" modified="2022-06-05T04:25:44.593Z" agent="5.0 (Windows NT 6.2; Win64; x64) AppleWebKit/537.36 (KHTML, like Gecko) Chrome/97.0.4692.45 Safari/537.36" etag="SN5EvrxMUhNynVtXExbb" version="15.5.4" type="embed"><diagram id="prtHgNgQTEPvFCAcTncT" name="Send Notification Flow"><mxGraphModel dx="971" dy="498" grid="1" gridSize="10" guides="1" tooltips="1" connect="1" arrows="1" fold="1" page="1" pageScale="1" pageWidth="827" pageHeight="1169" math="0" shadow="0"><root><mxCell id="0"/><mxCell id="1" parent="0"/><mxCell id="11" style="edgeStyle=orthogonalEdgeStyle;rounded=0;orthogonalLoop=1;jettySize=auto;html=1;entryX=0;entryY=0.5;entryDx=0;entryDy=0;fillColor=#008a00;strokeColor=#005700;strokeWidth=3;" edge="1" parent="1" source="_28B4jXfdEEOSbrgzBtu-1" target="_28B4jXfdEEOSbrgzBtu-11"><mxGeometry relative="1" as="geometry"/></mxCell><mxCell id="_28B4jXfdEEOSbrgzBtu-1" value="Actor" style="shape=umlActor;verticalLabelPosition=bottom;verticalAlign=top;html=1;outlineConnect=0;" parent="1" vertex="1"><mxGeometry x="30" y="310" width="30" height="60" as="geometry"/></mxCell><mxCell id="_28B4jXfdEEOSbrgzBtu-9" value="&lt;font style=&quot;font-size: 18px&quot;&gt;&lt;b&gt;Software Design Successfully Flow&lt;/b&gt;&lt;/font&gt;" style="text;html=1;align=center;verticalAlign=middle;resizable=0;points=[];autosize=1;strokeColor=none;" parent="1" vertex="1"><mxGeometry x="240" y="20" width="320" height="20" as="geometry"/></mxCell><mxCell id="HvkPGjHf5839snBHQK2X-38" style="edgeStyle=orthogonalEdgeStyle;rounded=0;orthogonalLoop=1;jettySize=auto;html=1;entryX=0;entryY=0.5;entryDx=0;entryDy=0;fillColor=#008a00;strokeColor=#005700;strokeWidth=3;" parent="1" source="_28B4jXfdEEOSbrgzBtu-11" target="HvkPGjHf5839snBHQK2X-36" edge="1"><mxGeometry relative="1" as="geometry"/></mxCell><mxCell id="10" style="edgeStyle=orthogonalEdgeStyle;rounded=0;orthogonalLoop=1;jettySize=auto;html=1;entryX=0;entryY=0.5;entryDx=0;entryDy=0;fillColor=#008a00;strokeColor=#005700;strokeWidth=3;" edge="1" parent="1" source="_28B4jXfdEEOSbrgzBtu-11" target="6"><mxGeometry relative="1" as="geometry"/></mxCell><mxCell id="_28B4jXfdEEOSbrgzBtu-11" value="Notification Service" style="ellipse;whiteSpace=wrap;html=1;" parent="1" vertex="1"><mxGeometry x="200" y="300" width="200" height="80" as="geometry"/></mxCell><mxCell id="12" value="" style="edgeStyle=orthogonalEdgeStyle;rounded=0;orthogonalLoop=1;jettySize=auto;html=1;fillColor=#008a00;strokeColor=#005700;strokeWidth=3;" edge="1" parent="1" source="HvkPGjHf5839snBHQK2X-36" target="3"><mxGeometry relative="1" as="geometry"/></mxCell><mxCell id="HvkPGjHf5839snBHQK2X-36" value="Twilio Service" style="ellipse;whiteSpace=wrap;html=1;" parent="1" vertex="1"><mxGeometry x="560" y="420" width="200" height="80" as="geometry"/></mxCell><mxCell id="3" value="Send Sync Message" style="rounded=1;whiteSpace=wrap;html=1;" parent="1" vertex="1"><mxGeometry x="600" y="540" width="120" height="60" as="geometry"/></mxCell><mxCell id="7" style="edgeStyle=orthogonalEdgeStyle;rounded=0;orthogonalLoop=1;jettySize=auto;html=1;exitX=0.5;exitY=1;exitDx=0;exitDy=0;fillColor=#008a00;strokeColor=#005700;" edge="1" parent="1" source="8"><mxGeometry relative="1" as="geometry"><mxPoint x="660" y="170" as="targetPoint"/></mxGeometry></mxCell><mxCell id="13" value="" style="edgeStyle=orthogonalEdgeStyle;rounded=0;orthogonalLoop=1;jettySize=auto;html=1;fillColor=#008a00;strokeColor=#005700;strokeWidth=3;" edge="1" parent="1" source="6" target="8"><mxGeometry relative="1" as="geometry"/></mxCell><mxCell id="6" value="Email Notification Service" style="ellipse;whiteSpace=wrap;html=1;" vertex="1" parent="1"><mxGeometry x="560" y="180" width="200" height="80" as="geometry"/></mxCell><mxCell id="8" value="Send Sync Email" style="rounded=1;whiteSpace=wrap;html=1;" vertex="1" parent="1"><mxGeometry x="600" y="80" width="120" height="60" as="geometry"/></mxCell></root></mxGraphModel></diagram></mxfile>